PathFileType	4	(X/Y/Z)	 2.8Hzhigh3min.trc
DataRate	CameraRate	NumFrames	NumMarkers	Units	OrigDataRate	OrigDataStartFrame	OrigNumFrames
200	200	9	39	m	200	247	987
Frame#	Time	C7			LSH			RSH			MAN			RASI			LASI			HIPR			HIPL			RPSI			LPSI			COX			RTHI1			RTHI2			RTHI3			RTHI4			RLKN			RMKN			RSHA1			RSHA2			RSHA3			RSHA4			RHEEL			RMET5			RMET1			RTOE			LTHI1			LTHI2			LTHI3			LTHI4			LLKN			LMKN			LSHA1			LSHA2			LSHA3			LSHA4			LHEEL			LMET5			LMET1			LTOE			
		X1	Y1	Z1	X2	Y2	Z2	X3	Y3	Z3	X4	Y4	Z4	X5	Y5	Z5	X6	Y6	Z6	X7	Y7	Z7	X8	Y8	Z8	X9	Y9	Z9	X10	Y10	Z10	X11	Y11	Z11	X12	Y12	Z12	X13	Y13	Z13	X14	Y14	Z14	X15	Y15	Z15	X16	Y16	Z16	X17	Y17	Z17	X18	Y18	Z18	X19	Y19	Z19	X20	Y20	Z20	X21	Y21	Z21	X22	Y22	Z22	X23	Y23	Z23	X24	Y24	Z24	X25	Y25	Z25	X26	Y26	Z26	X27	Y27	Z27	X28	Y28	Z28	X29	Y29	Z29	X30	Y30	Z30	X31	Y31	Z31	X32	Y32	Z32	X33	Y33	Z33	X34	Y34	Z34	X35	Y35	Z35	X36	Y36	Z36	X37	Y37	Z37	X38	Y38	Z38	X39	Y39	Z39	
247	1.2350	-0.294563	1.566600	-0.511968	-0.266016	1.570060	-0.694817	-0.243973	1.564207	-0.340314	-0.139397	1.540217	-0.528677	-0.131846	1.051984	-0.420868	-0.142532	1.066629	-0.655783	-0.201666	1.133249	-0.366715	-0.210560	1.154867	-0.691303	-0.310660	1.111744	-0.489580	-0.312737	1.118361	-0.566564	-0.312412	1.111759	-0.527263	-0.238713	0.878500	-0.342859	-0.231024	0.819808	-0.337424	-0.166277	0.826739	-0.336096	-0.167004	0.888008	-0.342232	-0.253580	0.544869	-0.367294	-0.219503	0.534697	-0.488872	-0.310577	0.388623	-0.352899	-0.326735	0.349933	-0.363695	-0.268428	0.332379	-0.360958	-0.256082	0.370724	-0.355704	-0.371939	0.166462	-0.435582	-0.246886	0.044653	-0.378133	-0.199086	0.056259	-0.443308	-0.175415	0.043258	-0.437166	-0.264841	0.863405	-0.722001	-0.243310	0.806177	-0.731616	-0.183330	0.825531	-0.746470	-0.196276	0.884197	-0.739282	-0.238533	0.568129	-0.716850	-0.205255	0.551760	-0.595641	-0.324982	0.352046	-0.711517	-0.335107	0.313820	-0.702992	-0.277624	0.300525	-0.724823	-0.275108	0.343945	-0.730729	-0.368731	0.165136	-0.641166	-0.252844	0.055435	-0.726617	-0.196343	0.063530	-0.670885	-0.173636	0.045474	-0.680348	
248	1.2400	-0.294647	1.568688	-0.511962	-0.265911	1.572555	-0.694541	-0.244190	1.566429	-0.340448	-0.139699	1.542524	-0.528580	-0.131809	1.053927	-0.420964	-0.142452	1.068669	-0.655583	-0.201055	1.136132	-0.366603	-0.210068	1.157710	-0.691247	-0.310296	1.115131	-0.489232	-0.312499	1.121556	-0.566305	-0.312010	1.115126	-0.526941	-0.238746	0.880580	-0.342787	-0.231180	0.821871	-0.337503	-0.166418	0.828664	-0.336212	-0.167038	0.889953	-0.342208	-0.253526	0.546763	-0.367360	-0.220187	0.536693	-0.489161	-0.309846	0.390269	-0.352496	-0.325920	0.351549	-0.363221	-0.267531	0.334166	-0.360849	-0.255339	0.372579	-0.355621	-0.370931	0.168181	-0.435138	-0.246124	0.046646	-0.376956	-0.198449	0.057532	-0.441961	-0.174881	0.044730	-0.435421	-0.264884	0.865534	-0.721858	-0.243380	0.808273	-0.731298	-0.183325	0.827546	-0.745965	-0.196235	0.886228	-0.738925	-0.238457	0.569990	-0.716407	-0.206281	0.553592	-0.594886	-0.324453	0.353713	-0.711864	-0.334596	0.315471	-0.703407	-0.276909	0.302275	-0.724745	-0.274398	0.345692	-0.730627	-0.367993	0.166120	-0.641018	-0.251890	0.057972	-0.728015	-0.195117	0.065861	-0.672827	-0.172401	0.047878	-0.682672	
249	1.2450	-0.294699	1.570533	-0.511958	-0.265806	1.574742	-0.694305	-0.244387	1.568316	-0.340545	-0.139936	1.544535	-0.528491	-0.131841	1.055645	-0.421024	-0.142451	1.070414	-0.655378	-0.200585	1.138639	-0.366453	-0.209664	1.160135	-0.691189	-0.309987	1.118221	-0.488892	-0.312348	1.124476	-0.566047	-0.311695	1.118208	-0.526622	-0.238797	0.882382	-0.342756	-0.231306	0.823676	-0.337608	-0.166535	0.830376	-0.336350	-0.167094	0.891689	-0.342217	-0.253196	0.548383	-0.367396	-0.220680	0.538449	-0.489403	-0.309062	0.391737	-0.352110	-0.325114	0.352978	-0.362768	-0.266674	0.335701	-0.360855	-0.254581	0.374134	-0.355629	-0.370230	0.169625	-0.434981	-0.245501	0.048770	-0.375594	-0.197780	0.058988	-0.440461	-0.174265	0.046415	-0.433555	-0.264943	0.867265	-0.721690	-0.243427	0.809985	-0.730953	-0.183317	0.829227	-0.745467	-0.196231	0.887916	-0.738584	-0.238195	0.571585	-0.716025	-0.207035	0.555171	-0.594243	-0.323942	0.355249	-0.712180	-0.334143	0.317003	-0.703782	-0.276280	0.303832	-0.724648	-0.273723	0.347239	-0.730518	-0.367424	0.166908	-0.640842	-0.250957	0.060428	-0.729304	-0.193967	0.068213	-0.674512	-0.171183	0.050378	-0.684648	
250	1.2500	-0.294718	1.572132	-0.511956	-0.265695	1.576604	-0.694108	-0.244558	1.569871	-0.340600	-0.140111	1.546248	-0.528407	-0.131930	1.057143	-0.421051	-0.142528	1.071869	-0.655171	-0.200260	1.140759	-0.366277	-0.209350	1.162139	-0.691123	-0.309766	1.121007	-0.488558	-0.312281	1.127095	-0.565794	-0.311481	1.120982	-0.526325	-0.238861	0.883930	-0.342766	-0.231386	0.825228	-0.337722	-0.166613	0.831878	-0.336505	-0.167150	0.893218	-0.342258	-0.252642	0.549743	-0.367397	-0.220964	0.539974	-0.489587	-0.308273	0.393037	-0.351783	-0.324355	0.354251	-0.362354	-0.265897	0.337018	-0.360948	-0.253827	0.375436	-0.355725	-0.369798	0.170804	-0.435059	-0.244993	0.050945	-0.374133	-0.197096	0.060563	-0.438849	-0.173613	0.048228	-0.431600	-0.265003	0.868624	-0.721512	-0.243440	0.811336	-0.730594	-0.183293	0.830582	-0.744977	-0.196246	0.889275	-0.738264	-0.237811	0.572931	-0.715706	-0.207521	0.556511	-0.593717	-0.323470	0.356649	-0.712442	-0.333747	0.318398	-0.704092	-0.275746	0.305215	-0.724556	-0.273123	0.348606	-0.730416	-0.367037	0.167577	-0.640775	-0.250031	0.062702	-0.730365	-0.192919	0.070501	-0.675811	-0.170029	0.052849	-0.686140	
251	1.2550	-0.294706	1.573489	-0.511955	-0.265572	1.578132	-0.693954	-0.244690	1.571100	-0.340605	-0.140234	1.547665	-0.528324	-0.132068	1.058423	-0.421043	-0.142677	1.073044	-0.654963	-0.200084	1.142489	-0.366090	-0.209133	1.163716	-0.691035	-0.309598	1.123434	-0.488242	-0.312293	1.129388	-0.565549	-0.311356	1.123413	-0.526037	-0.238918	0.885243	-0.342800	-0.231408	0.826537	-0.337827	-0.166634	0.833189	-0.336674	-0.167191	0.894555	-0.342336	-0.251924	0.550864	-0.367361	-0.221041	0.541277	-0.489702	-0.307522	0.394185	-0.351513	-0.323678	0.355389	-0.362018	-0.265223	0.338141	-0.361105	-0.253117	0.376513	-0.355880	-0.369602	0.171755	-0.435313	-0.244577	0.053096	-0.372675	-0.196457	0.062150	-0.437219	-0.172957	0.050092	-0.429654	-0.265052	0.869644	-0.721334	-0.243412	0.812353	-0.730234	-0.183244	0.831632	-0.744500	-0.196264	0.890333	-0.737959	-0.237359	0.574047	-0.715450	-0.207748	0.557624	-0.593307	-0.323068	0.357903	-0.712633	-0.333416	0.319654	-0.704320	-0.275323	0.306441	-0.724488	-0.272624	0.349822	-0.730336	-0.366856	0.168169	-0.640893	-0.249092	0.064724	-0.731116	-0.191996	0.072645	-0.676633	-0.168971	0.055199	-0.687064	
252	1.2600	-0.294669	1.574614	-0.511955	-0.265431	1.579341	-0.693856	-0.244781	1.572010	-0.340555	-0.140311	1.548792	-0.528238	-0.132244	1.059485	-0.421001	-0.142891	1.073951	-0.654758	-0.200055	1.143834	-0.365907	-0.209018	1.164876	-0.690917	-0.309516	1.125496	-0.487948	-0.312376	1.131338	-0.565319	-0.311319	1.125487	-0.525756	-0.238934	0.886304	-0.342816	-0.231360	0.827615	-0.337909	-0.166586	0.834315	-0.336854	-0.167201	0.895695	-0.342444	-0.251109	0.551770	-0.367288	-0.220916	0.542363	-0.489746	-0.306844	0.395174	-0.351327	-0.323109	0.356403	-0.361776	-0.264684	0.339079	-0.361295	-0.252495	0.377375	-0.356047	-0.369589	0.172495	-0.435654	-0.244248	0.055143	-0.371300	-0.195884	0.063703	-0.435674	-0.172362	0.051897	-0.427811	-0.265077	0.870359	-0.721171	-0.243339	0.813072	-0.729884	-0.183161	0.832406	-0.744033	-0.196269	0.891111	-0.737669	-0.236892	0.574953	-0.715245	-0.207747	0.558529	-0.592998	-0.322764	0.359008	-0.712744	-0.333171	0.320766	-0.704466	-0.275022	0.307517	-0.724440	-0.272256	0.350887	-0.730274	-0.366883	0.168706	-0.641226	-0.248130	0.066467	-0.731516	-0.191210	0.074606	-0.676941	-0.168023	0.057374	-0.687381	
253	1.2650	-0.294609	1.575511	-0.511956	-0.265267	1.580223	-0.693811	-0.244818	1.572611	-0.340443	-0.140352	1.549631	-0.528146	-0.132449	1.060340	-0.420928	-0.143158	1.074602	-0.654556	-0.200168	1.144810	-0.365741	-0.209011	1.165629	-0.690764	-0.309513	1.127182	-0.487680	-0.312527	1.132928	-0.565103	-0.311362	1.127187	-0.525490	-0.238899	0.887149	-0.342800	-0.231231	0.828465	-0.337954	-0.166459	0.835265	-0.337032	-0.167164	0.896643	-0.342576	-0.250257	0.552480	-0.367174	-0.220604	0.543238	-0.489716	-0.306263	0.396018	-0.351211	-0.322655	0.357287	-0.361642	-0.264281	0.339843	-0.361488	-0.251975	0.378053	-0.356205	-0.369714	0.173055	-0.436026	-0.243998	0.057010	-0.370090	-0.195417	0.065154	-0.434294	-0.171876	0.053571	-0.426170	-0.265072	0.870806	-0.721031	-0.243221	0.813528	-0.729554	-0.183038	0.832929	-0.743580	-0.196248	0.891637	-0.737391	-0.236426	0.575663	-0.715088	-0.207550	0.559233	-0.592777	-0.322571	0.359963	-0.712776	-0.333022	0.321719	-0.704522	-0.274856	0.308443	-0.724406	-0.272038	0.351808	-0.730224	-0.367112	0.169174	-0.641754	-0.247143	0.067934	-0.731566	-0.190551	0.076361	-0.676736	-0.167183	0.059341	-0.687105	
254	1.2700	-0.294525	1.576182	-0.511959	-0.265073	1.580793	-0.693827	-0.244803	1.572915	-0.340270	-0.140366	1.550187	-0.528049	-0.132674	1.060988	-0.420827	-0.143469	1.075016	-0.654362	-0.200416	1.145432	-0.365595	-0.209111	1.166003	-0.690581	-0.309602	1.128491	-0.487443	-0.312728	1.134146	-0.564909	-0.311479	1.128497	-0.525256	-0.238812	0.887776	-0.342749	-0.231020	0.829104	-0.337951	-0.166253	0.836027	-0.337211	-0.167078	0.897398	-0.342724	-0.249414	0.553001	-0.367022	-0.220130	0.543907	-0.489618	-0.305801	0.396714	-0.351177	-0.322323	0.358042	-0.361611	-0.264018	0.340439	-0.361667	-0.251575	0.378563	-0.356331	-0.369944	0.173452	-0.436384	-0.243817	0.058653	-0.369110	-0.195071	0.066439	-0.433157	-0.171510	0.055069	-0.424812	-0.265029	0.871025	-0.720918	-0.243058	0.813755	-0.729249	-0.182871	0.833229	-0.743142	-0.196191	0.891934	-0.737122	-0.235961	0.576187	-0.714977	-0.207200	0.559763	-0.592634	-0.322489	0.360756	-0.712736	-0.332974	0.322511	-0.704491	-0.274813	0.309206	-0.724369	-0.271963	0.352579	-0.730167	-0.367525	0.169575	-0.642446	-0.246142	0.069143	-0.731298	-0.190032	0.077894	-0.676074	-0.166459	0.061075	-0.686279	
255	1.2750	-0.294419	1.576632	-0.511960	-0.264850	1.581056	-0.693906	-0.244734	1.572934	-0.340035	-0.140362	1.550464	-0.527946	-0.132912	1.061429	-0.420696	-0.143810	1.075207	-0.654178	-0.200786	1.145728	-0.365469	-0.209322	1.166029	-0.690373	-0.309746	1.129385	-0.487248	-0.312976	1.134984	-0.564744	-0.311662	1.129405	-0.525049	-0.238667	0.888190	-0.342647	-0.230730	0.829528	-0.337899	-0.165966	0.836605	-0.337381	-0.166943	0.897965	-0.342879	-0.248619	0.553342	-0.366830	-0.219528	0.544376	-0.489456	-0.305464	0.397259	-0.351195	-0.322115	0.358647	-0.361677	-0.263886	0.340867	-0.361825	-0.251297	0.378910	-0.356416	-0.370270	0.173698	-0.436715	-0.243714	0.060042	-0.368375	-0.194862	0.067538	-0.432308	-0.171272	0.056373	-0.423785	-0.264944	0.871040	-0.720830	-0.242853	0.813785	-0.728973	-0.182662	0.833326	-0.742725	-0.196092	0.892023	-0.736860	-0.235501	0.576533	-0.714906	-0.206736	0.560131	-0.592556	-0.322499	0.361374	-0.712637	-0.333012	0.323132	-0.704390	-0.274876	0.309788	-0.724316	-0.271998	0.353177	-0.730100	-0.368064	0.169849	-0.643186	-0.245152	0.070111	-0.730756	-0.189656	0.079181	-0.675023	-0.165856	0.062561	-0.685001	
